<svg width="50" height="62" viewBox="0 0 50 62" fill="none" xmlns="http://www.w3.org/2000/svg">
<path d="M24.6 43.3V46.2H12.9V43.3H24.6ZM39.3 13.9H36.4V16.8H39.3V13.9ZM12.9 37.5V40.4H24.6V37.5H12.9ZM27.4 22.7V19.8H24.5V22.7H27.4ZM12.9 31.6V34.5H24.6V31.6H12.9ZM42.1 46.2H30.4V46.3V52.1H7V17H18.7V11H36.2V13.9H33.3V19.8H39.2V16.9H42.1V46.2ZM27.1 49.2H27.6V28.7H27.5H18.7V19.9H9.9V49.3L27.1 49.2ZM39.3 22.7H30.5V13.9H21.7V16.8V16.9H24.6V19.8H21.7V25.7H27.6V22.7H30.5V25.7H36.3V28.6H30.5V31.5V31.6H36.3V34.5H30.5V37.4V37.5H36.3V40.4H30.5V43.3H39.3V22.7Z" fill="#2B7FFF"/>
</svg>
